<?xml version="1.0" encoding="UTF-8"?> <svg xmlns="http://www.w3.org/2000/svg" data-v-fde0c5aa="" viewBox="0 0 300 300" class="iconLeft"><!----><defs data-v-fde0c5aa=""><!----></defs><rect data-v-fde0c5aa="" fill="#FBF3EF" x="0" y="0" width="300px" height="300px" class="logo-background-square"></rect><defs data-v-fde0c5aa=""><!----></defs><g data-v-fde0c5aa="" id="4ff69eb5-041c-4fe3-ac22-ce776debabab" fill="#2F190E" transform="matrix(4.440311908721924,0,0,4.440311908721924,142.242924363353,111.61350292259233)"><path d="M1.68 7.84L0.42 7.84L0.42 7.36L1.67 7.15L1.67 7.15Q1.67 5.46 2.48 4.20L2.48 4.20L2.48 4.20Q3.29 2.94 4.82 2.94L4.82 2.94L4.82 2.94Q5.50 2.94 5.73 3.31L5.73 3.31L5.73 3.31Q5.95 3.68 5.95 4.52L5.95 4.52L5.95 4.52Q5.95 4.61 5.94 4.77L5.94 4.77L5.94 4.77Q5.94 4.94 5.94 5.04L5.94 5.04L5.33 5.05L5.33 5.05Q5.04 3.46 4.45 3.46L4.45 3.46L4.45 3.46Q3.95 3.46 3.51 4.54L3.51 4.54L3.51 4.54Q3.07 5.61 3.07 6.85L3.07 6.85L3.07 7.06L4.94 7.06L4.90 7.84L3.07 7.84L3.07 7.84Q3.01 10.78 3.01 12.75L3.01 12.75L3.01 12.75Q3.01 12.91 3.02 13.01L3.02 13.01L3.02 13.01Q3.04 13.12 3.05 13.20L3.05 13.20L3.05 13.20Q3.07 13.29 3.14 13.34L3.14 13.34L3.14 13.34Q3.21 13.38 3.25 13.42L3.25 13.42L3.25 13.42Q3.30 13.45 3.46 13.48L3.46 13.48L3.46 13.48Q3.61 13.51 3.72 13.54L3.72 13.54L3.72 13.54Q3.84 13.57 4.09 13.60L4.09 13.60L4.09 13.60Q4.35 13.64 4.56 13.68L4.56 13.68L4.56 14.11L0.64 14.11L0.64 13.64L0.64 13.64Q1.15 13.57 1.27 13.54L1.27 13.54L1.27 13.54Q1.40 13.52 1.57 13.41L1.57 13.41L1.57 13.41Q1.74 13.30 1.75 13.16L1.75 13.16L1.75 13.16Q1.76 13.02 1.76 12.68L1.76 12.68L1.76 12.68Q1.76 11.70 1.68 7.84L1.68 7.84ZM5.53 10.47L5.53 10.47L5.53 10.47Q5.53 9.24 6.10 8.30L6.10 8.30L6.10 8.30Q6.48 7.71 7.42 7.23L7.42 7.23L7.42 7.23Q8.36 6.75 8.97 6.75L8.97 6.75L8.97 6.75Q10.22 6.75 11.10 7.55L11.10 7.55L11.10 7.55Q11.98 8.34 11.98 10.00L11.98 10.00L11.98 10.00Q11.98 11.72 11.37 12.66L11.37 12.66L11.37 12.66Q10.54 13.76 9.76 14.11L9.76 14.11L9.76 14.11Q9.23 14.35 8.48 14.35L8.48 14.35L8.48 14.35Q8.08 14.35 7.71 14.27L7.71 14.27L7.71 14.27Q7.35 14.20 6.94 13.94L6.94 13.94L6.94 13.94Q6.52 13.69 6.22 13.29L6.22 13.29L6.22 13.29Q5.92 12.88 5.73 12.16L5.73 12.16L5.73 12.16Q5.53 11.44 5.53 10.47ZM6.86 10.36L6.86 10.36L6.86 10.36Q6.86 12.04 7.44 12.70L7.44 12.70L7.44 12.70Q8.02 13.36 9.13 13.36L9.13 13.36L9.13 13.36Q9.55 13.36 9.74 13.29L9.74 13.29L9.74 13.29Q10.71 12.91 10.71 10.37L10.71 10.37L10.71 10.37Q10.71 9.18 10.39 8.63L10.39 8.63L10.39 8.63Q10.08 8.08 9.31 7.84L9.31 7.84L9.31 7.84Q8.92 7.74 8.55 7.74L8.55 7.74L8.55 7.74Q8.27 7.74 8.13 7.76L8.13 7.76L8.13 7.76Q7.98 7.77 7.74 7.84L7.74 7.84L7.74 7.84Q7.50 7.91 7.38 8.07L7.38 8.07L7.38 8.07Q7.25 8.23 7.11 8.51L7.11 8.51L7.11 8.51Q6.97 8.79 6.92 9.26L6.92 9.26L6.92 9.26Q6.86 9.73 6.86 10.36ZM12.77 10.47L12.77 10.47L12.77 10.47Q12.77 9.24 13.34 8.30L13.34 8.30L13.34 8.30Q13.72 7.71 14.66 7.23L14.66 7.23L14.66 7.23Q15.60 6.75 16.21 6.75L16.21 6.75L16.21 6.75Q17.46 6.75 18.34 7.55L18.34 7.55L18.34 7.55Q19.22 8.34 19.22 10.00L19.22 10.00L19.22 10.00Q19.22 11.72 18.61 12.66L18.61 12.66L18.61 12.66Q17.78 13.76 17.00 14.11L17.00 14.11L17.00 14.11Q16.46 14.35 15.72 14.35L15.72 14.35L15.72 14.35Q15.32 14.35 14.95 14.27L14.95 14.27L14.95 14.27Q14.59 14.20 14.18 13.94L14.18 13.94L14.18 13.94Q13.76 13.69 13.46 13.29L13.46 13.29L13.46 13.29Q13.16 12.88 12.96 12.16L12.96 12.16L12.96 12.16Q12.77 11.44 12.77 10.47ZM14.10 10.36L14.10 10.36L14.10 10.36Q14.10 12.04 14.68 12.70L14.68 12.70L14.68 12.70Q15.26 13.36 16.37 13.36L16.37 13.36L16.37 13.36Q16.79 13.36 16.98 13.29L16.98 13.29L16.98 13.29Q17.95 12.91 17.95 10.37L17.95 10.37L17.95 10.37Q17.95 9.18 17.63 8.63L17.63 8.63L17.63 8.63Q17.32 8.08 16.55 7.84L16.55 7.84L16.55 7.84Q16.16 7.74 15.79 7.74L15.79 7.74L15.79 7.74Q15.51 7.74 15.37 7.76L15.37 7.76L15.37 7.76Q15.22 7.77 14.98 7.84L14.98 7.84L14.98 7.84Q14.74 7.91 14.62 8.07L14.62 8.07L14.62 8.07Q14.49 8.23 14.35 8.51L14.35 8.51L14.35 8.51Q14.21 8.79 14.15 9.26L14.15 9.26L14.15 9.26Q14.10 9.73 14.10 10.36ZM20.01 10.72L20.01 10.72L20.01 10.72Q20.01 9.95 20.09 9.38L20.09 9.38L20.09 9.38Q20.17 8.81 20.27 8.49L20.27 8.49L20.27 8.49Q20.37 8.18 20.57 7.92L20.57 7.92L20.57 7.92Q20.78 7.67 20.88 7.59L20.88 7.59L20.88 7.59Q20.99 7.50 21.22 7.36L21.22 7.36L21.70 7.08L21.70 7.08Q22.30 6.72 23.10 6.72L23.10 6.72L23.10 6.72Q23.74 6.72 24.58 6.92L24.58 6.92L24.58 6.92Q24.58 6.38 24.57 5.69L24.57 5.69L24.57 5.69Q24.56 5.00 24.56 4.82L24.56 4.82L24.56 4.82Q24.56 4.37 24.55 4.19L24.55 4.19L24.55 4.19Q24.54 4.02 24.41 3.89L24.41 3.89L24.41 3.89Q24.28 3.77 24.14 3.76L24.14 3.76L24.14 3.76Q24.01 3.75 23.58 3.74L23.58 3.74L23.55 3.28L23.55 3.28Q24.15 3.22 24.65 3.14L24.65 3.14L24.65 3.14Q25.14 3.05 25.38 3.00L25.38 3.00L25.38 3.00Q25.62 2.94 25.66 2.94L25.66 2.94L25.66 2.94Q25.90 2.94 25.90 3.16L25.90 3.16L25.90 3.16Q25.90 6.17 25.85 8.94L25.85 8.94L25.85 8.94Q25.80 11.70 25.80 12.31L25.80 12.31L25.80 12.31Q25.80 12.67 26.16 13.20L26.16 13.20L26.16 13.20Q26.52 13.73 26.52 13.75L26.52 13.75L26.52 13.75Q26.52 13.79 26.40 13.84L26.40 13.84L26.40 13.84Q26.28 13.89 26.10 13.94L26.10 13.94L26.10 13.94Q25.91 14 25.89 14.01L25.89 14.01L25.89 14.01Q25.34 14.25 25.23 14.25L25.23 14.25L25.23 14.25Q25.12 14.25 25.00 14.02L25.00 14.02L25.00 14.02Q24.89 13.79 24.79 13.51L24.79 13.51L24.79 13.51Q24.68 13.23 24.61 13.16L24.61 13.16L24.61 13.16Q23.56 14.32 22.75 14.32L22.75 14.32L22.75 14.32Q22.44 14.32 22.02 14.13L22.02 14.13L22.02 14.13Q21.59 13.94 21.12 13.56L21.12 13.56L21.12 13.56Q20.65 13.17 20.33 12.43L20.33 12.43L20.33 12.43Q20.01 11.69 20.01 10.72ZM21.24 10.19L21.24 10.19L21.24 10.19Q21.24 11.65 21.79 12.38L21.79 12.38L21.79 12.38Q22.34 13.12 23.16 13.12L23.16 13.12L23.16 13.12Q23.94 13.12 24.60 12.49L24.60 12.49L24.60 12.49Q24.60 10.04 24.58 9.01L24.58 9.01L24.58 9.01Q24.56 7.98 24.56 7.92L24.56 7.92L24.56 7.92Q23.90 7.53 22.90 7.53L22.90 7.53L22.90 7.53Q22.48 7.53 22.23 7.61L22.23 7.61L22.23 7.61Q21.97 7.69 21.71 7.95L21.71 7.95L21.71 7.95Q21.46 8.20 21.35 8.76L21.35 8.76L21.35 8.76Q21.24 9.31 21.24 10.19Z"></path></g><defs data-v-fde0c5aa=""><linearGradient data-v-fde0c5aa="" gradientTransform="rotate(25)" id="ee8cf96e-0fa2-4e8e-babf-01b881ad1817" x1="0%" y1="0%" x2="100%" y2="0%"><stop data-v-fde0c5aa="" offset="0%" stop-color="#A92580" stop-opacity="1"></stop><stop data-v-fde0c5aa="" offset="100%" stop-color="#F7BC00" stop-opacity="1"></stop></linearGradient></defs><g data-v-fde0c5aa="" id="8e1c06d6-80da-4214-8633-6df63c673c5c" stroke="none" fill="url(#ee8cf96e-0fa2-4e8e-babf-01b881ad1817)" transform="matrix(1.012300968170166,0,0,1.012300968170166,34.0800636537018,99.21512125056879)"><switch><g><path d="M94.666 13.76c-1.674-1.784-4.716-1.397-5.96.767l-12.85 22.264c-3.562-3.336-9.388-5.48-16.106-5.48-6.491 0-12.143 2.002-15.734 5.144-3.487-2.848-8.796-4.638-14.846-4.638-9.374 0-16.976 4.295-18.757 10.173H5.848v3.237c0 23.421 19.056 42.477 42.477 42.477s42.477-19.056 42.477-42.477V41.99h-8.709l13.134-22.758c1.005-1.741.773-4.04-.561-5.472zM59.75 37.462c5.986 0 10.612 2.078 12.594 4.527H47.927c-.058-.191-.14-.375-.212-.561 2.202-2.193 6.517-3.966 12.035-3.966zm-30.58.306c5.111 0 9.165 1.572 11.373 3.568-.079.218-.163.433-.227.653h-23.17c1.984-2.298 6.363-4.221 12.024-4.221zm19.155 43.461c-18.763 0-34.218-14.425-35.86-32.766h71.72c-1.642 18.342-17.098 32.766-35.86 32.766z"></path></g></switch></g><!----></svg> 